<?xml version="1.0" standalone="no"?>
<!DOCTYPE svg PUBLIC "-//W3C//DTD SVG 20010904//EN"
 "http://www.w3.org/TR/2001/REC-SVG-20010904/DTD/svg10.dtd">
<svg version="1.0" xmlns="http://www.w3.org/2000/svg"
 width="400.000000pt" height="400.000000pt" viewBox="0 0 400.000000 400.000000"
 preserveAspectRatio="xMidYMid meet">
<metadata>
Created by potrace 1.14, written by Peter Selinger 2001-2017
</metadata>
<g transform="translate(0.000000,400.000000) scale(0.100000,-0.100000)"
fill="#000000" stroke="none">
<path d="M947 3927 c-43 -40 -77 -76 -77 -81 0 -5 8 -2 18 7 10 9 71 44 137
78 66 34 122 63 124 65 2 2 -25 4 -60 4 l-64 -1 -78 -72z"/>
<path d="M1561 3933 c29 -38 71 -90 94 -118 138 -167 319 -444 301 -462 -3 -3
10 -28 30 -54 30 -41 33 -49 17 -49 -11 1 -46 39 -91 99 -41 54 -94 118 -119
142 l-45 44 20 -40 c38 -78 62 -134 62 -148 0 -7 16 -33 37 -56 29 -34 33 -45
22 -52 -22 -13 -28 -11 -73 23 l-41 33 33 -38 c17 -21 32 -40 32 -43 0 -31
-265 225 -279 270 -5 17 -12 87 -15 155 -3 68 -8 126 -11 129 -14 14 -19 -18
-17 -103 2 -53 -2 -96 -7 -100 -17 -10 -31 31 -32 92 l-1 58 -10 -55 c-14 -78
-3 -454 17 -583 9 -60 15 -111 12 -113 -2 -2 -10 15 -17 38 -16 50 -36 78 -26
36 11 -49 -12 -30 -42 35 -39 80 -114 304 -146 432 -14 55 -30 101 -36 103 -5
2 -10 29 -11 60 -1 32 -5 68 -10 82 -6 17 -7 -5 -5 -65 3 -69 8 -99 25 -128
11 -20 21 -39 20 -42 -2 -33 39 -206 73 -304 15 -47 26 -86 24 -88 -2 -2 -16
16 -31 39 -15 24 -42 61 -59 82 -17 22 -39 60 -48 85 l-17 46 6 -85 6 -85 -26
31 c-14 17 -36 55 -47 85 -29 73 -44 86 -35 30 5 -31 4 -42 -4 -37 -19 12 -13
-2 38 -83 94 -152 174 -246 301 -355 l45 -39 -44 24 c-78 42 -344 317 -386
399 -9 18 -19 30 -22 27 -7 -8 59 -107 122 -181 36 -43 64 -88 76 -124 11 -31
34 -72 52 -90 35 -37 135 -118 182 -148 l30 -19 -31 40 c-54 71 -78 109 -63
100 51 -31 129 -87 129 -94 0 -12 90 -134 96 -129 2 3 -9 27 -24 56 -14 28
-24 53 -21 56 3 3 35 -6 70 -20 100 -41 208 -71 279 -78 l65 -6 -60 15 c-110
28 -189 57 -280 105 -97 51 -104 60 -118 155 -6 38 -4 44 40 90 26 27 41 45
34 41 -8 -5 -16 -4 -21 3 -4 8 -16 0 -35 -25 l-28 -37 -9 24 c-5 13 -12 116
-15 228 l-6 203 156 -123 c86 -68 156 -126 156 -129 1 -3 -18 -13 -42 -23 -40
-18 -41 -19 -19 -28 16 -6 32 -4 52 6 16 8 36 15 45 15 9 0 59 -29 111 -64 98
-67 98 -67 27 -81 -18 -4 -33 -11 -33 -16 0 -5 -9 -9 -20 -9 -49 0 -163 -83
-212 -154 -12 -17 -15 -25 -8 -18 22 20 30 14 20 -14 -21 -53 -3 -77 19 -26 7
15 19 38 28 51 l15 23 18 -38 c9 -22 28 -49 42 -61 l24 -23 107 43 107 42 0
62 c0 34 -4 65 -10 68 -23 14 -9 35 24 35 46 0 60 -19 47 -64 -7 -27 -6 -36 3
-36 7 0 17 -12 23 -27 11 -28 11 -28 10 -3 -1 48 3 83 9 77 11 -11 17 -169 6
-176 -5 -3 -12 -53 -15 -111 -4 -58 -9 -116 -12 -130 -6 -23 -6 -24 6 -5 7 11
20 42 29 69 9 28 22 52 28 54 15 5 16 -91 1 -173 -6 -33 -11 -67 -11 -75 0 -8
-6 -22 -13 -30 -6 -8 -15 -22 -19 -30 -13 -26 72 70 104 118 42 63 38 42 -10
-51 l-41 -79 32 19 c74 42 209 210 209 260 0 13 6 44 13 70 10 37 10 47 -1 51
-6 2 -10 7 -8 11 11 17 36 159 36 202 0 72 -12 169 -21 169 -4 0 -11 -17 -14
-37 -9 -60 -37 -153 -45 -148 -3 2 -12 -24 -19 -58 -13 -63 -72 -249 -78 -244
-1 2 4 37 13 78 9 41 19 122 24 180 4 59 10 112 14 117 3 6 -4 19 -17 29 -19
15 -22 24 -16 48 l7 30 1 -32 c0 -18 5 -33 11 -33 11 0 2 176 -10 199 -4 7
-10 -22 -14 -64 -12 -129 -15 -137 -45 -130 -14 3 -37 14 -51 24 -14 10 -38
19 -52 19 -29 -1 -166 89 -186 122 -13 22 -9 40 10 40 6 0 37 -25 70 -55 32
-30 63 -55 67 -55 5 0 0 25 -10 56 -20 60 -18 74 10 74 20 0 31 -35 31 -97 0
-46 13 -68 50 -83 37 -15 49 -7 26 19 -20 21 -16 45 20 132 29 72 42 152 49
319 3 74 10 162 15 195 5 33 9 98 8 145 -1 80 -1 78 -8 -38 -7 -119 -19 -175
-21 -96 0 21 -4 47 -8 58 -4 10 -5 -60 -3 -157 3 -97 1 -202 -3 -234 -8 -57
-8 -54 -25 92 -10 83 -30 193 -45 245 -27 98 -84 244 -91 237 -3 -2 4 -24 15
-49 48 -113 102 -349 120 -524 9 -85 8 -110 -5 -155 -17 -58 -31 -82 -46 -77
-5 2 -8 6 -7 8 1 3 -3 15 -10 28 -10 18 -9 23 4 28 22 9 19 24 -5 24 -13 0
-22 9 -26 28 -3 15 -12 45 -19 67 -11 32 -14 35 -14 15 0 -14 4 -43 9 -65 10
-46 12 -42 -21 -50 -22 -5 -27 -3 -33 18 -3 14 -25 67 -49 118 -24 52 -47 101
-50 109 -3 8 -6 10 -6 3 -1 -12 42 -140 59 -178 5 -11 11 -33 12 -50 3 -26 -1
-30 -23 -33 -30 -4 -42 11 -104 123 -21 39 -60 104 -87 146 -44 70 -67 119
-34 73 8 -10 17 -16 20 -13 6 5 -37 78 -67 115 -88 107 -105 129 -102 132 4 4
87 -84 99 -107 5 -9 14 -21 20 -27 6 -6 25 -34 41 -62 17 -29 34 -52 38 -52 5
0 0 15 -11 33 -10 17 -36 61 -57 97 -51 85 -100 152 -165 223 -50 55 -54 57
-101 57 l-49 0 51 -67z m-52 -428 c13 -30 13 -30 -8 -11 -12 11 -21 28 -21 40
0 24 11 13 29 -29z m101 -118 c0 -6 -9 -2 -20 8 -11 10 -20 23 -20 28 0 6 9 2
20 -8 11 -10 20 -23 20 -28z m-355 -171 c9 -19 15 -47 13 -63 l-4 -28 -11 26
c-14 33 -27 99 -20 99 4 0 13 -15 22 -34z m862 4 c7 -14 10 -26 7 -29 -7 -8
-54 41 -48 51 9 14 28 4 41 -22z m-790 -146 c-3 -3 -12 -4 -19 -1 -8 3 -5 6 6
6 11 1 17 -2 13 -5z m813 -4 c0 -5 -2 -10 -4 -10 -3 0 -8 5 -11 10 -3 6 -1 10
4 10 6 0 11 -4 11 -10z m-785 -20 c-3 -5 0 -10 8 -10 7 0 25 -25 39 -55 14
-30 23 -55 21 -55 -3 0 -27 22 -53 49 -49 51 -60 81 -28 81 11 0 16 -4 13 -10z
m967 -91 l-9 -34 -8 27 c-9 34 1 66 16 51 7 -7 7 -22 1 -44z m47 9 c-1 -40
-13 -75 -22 -62 -8 14 4 94 14 94 5 0 9 -15 8 -32z m-347 -36 c22 -19 34 -80
19 -95 -8 -8 -11 -7 -11 5 0 24 -39 68 -61 68 -11 0 -27 -4 -37 -9 -9 -5 -25
-12 -36 -15 -16 -6 -18 -13 -13 -61 3 -30 4 -55 2 -55 -2 0 -13 15 -24 34 -37
60 -26 93 44 126 64 30 84 31 117 2z m203 -38 c0 -24 -3 -44 -7 -44 -5 0 -8
23 -8 52 0 28 3 48 8 44 4 -4 7 -28 7 -52z m135 -41 c0 -38 -30 -196 -39 -206
-4 -4 -9 15 -10 44 -1 28 -4 56 -7 60 -3 5 2 19 10 31 9 12 16 36 16 54 0 17
3 34 7 37 14 14 23 6 23 -20z m-849 -30 c13 -15 12 -15 -8 -4 -24 12 -29 21
-14 21 5 0 15 -7 22 -17z m473 -2 c9 -15 -23 -36 -36 -23 -5 5 -7 15 -4 21 9
13 33 14 40 2z m-414 -26 c17 -9 30 -18 30 -20 0 -6 -52 16 -64 27 -16 13 3 9
34 -7z m913 -105 c-3 -12 -8 -19 -11 -16 -5 6 5 36 12 36 2 0 2 -9 -1 -20z"/>
<path d="M1840 3996 c0 -3 15 -15 33 -27 l32 -23 -24 27 c-22 24 -41 35 -41
23z"/>
<path d="M1900 3993 c0 -4 11 -18 24 -32 25 -28 110 -155 165 -246 18 -31 35
-54 37 -52 3 2 -5 28 -16 57 -25 63 -21 87 5 42 11 -18 23 -32 27 -32 11 0
-26 72 -64 128 -16 23 -28 50 -26 59 2 10 17 -4 42 -41 21 -31 42 -56 47 -56
11 0 -10 57 -27 71 -11 9 -12 15 -2 26 15 18 19 42 12 66 -5 15 -19 17 -115
17 -60 0 -109 -3 -109 -7z"/>
<path d="M2581 3930 c34 -38 63 -70 65 -70 6 0 -11 48 -28 75 -10 17 -18 38
-18 48 0 13 -9 17 -41 17 l-41 0 63 -70z"/>
<path d="M2650 3992 c0 -5 8 -17 18 -28 37 -41 104 -137 133 -191 25 -47 28
-21 4 27 -14 28 -23 50 -21 50 10 0 94 -138 105 -173 7 -20 29 -59 49 -87 20
-27 45 -62 54 -77 24 -39 113 -150 160 -201 22 -23 39 -45 37 -47 -5 -5 -112
68 -171 117 -27 22 -48 36 -48 31 0 -5 6 -15 13 -22 10 -10 9 -11 -5 -6 -10 4
-18 5 -18 3 0 -11 35 -76 58 -105 22 -30 24 -44 29 -170 3 -85 1 -148 -5 -163
-9 -20 -11 -10 -11 56 -1 82 -29 211 -58 268 -9 17 -16 42 -15 56 1 43 -31 92
-88 136 -30 24 -79 64 -109 91 -62 55 -59 45 15 -47 l52 -65 3 -100 c2 -55 2
-138 0 -185 -4 -97 -2 -103 -46 142 -15 82 -37 167 -49 190 -25 51 -51 57 -51
13 0 -26 -3 -30 -28 -30 -21 1 -26 -3 -21 -15 3 -8 10 -27 14 -41 4 -14 13
-35 19 -46 14 -27 71 -238 71 -263 0 -24 8 -25 31 -4 31 28 39 8 39 -106 0
-95 2 -109 16 -103 9 3 13 12 9 21 -3 9 -3 35 1 59 6 44 7 44 28 26 18 -15 17
-14 -2 9 -23 26 -27 68 -7 74 15 5 75 -80 75 -105 0 -12 4 -20 10 -16 11 7 40
-46 40 -76 0 -12 -19 -54 -41 -93 -23 -39 -61 -110 -85 -157 -36 -73 -49 -90
-87 -113 -25 -14 -55 -26 -66 -26 -11 0 -25 -9 -31 -19 -14 -28 -12 -36 5 -21
9 7 17 11 18 9 6 -8 28 -96 42 -163 17 -83 29 -100 20 -31 -3 28 -2 68 2 90
l9 40 26 -55 c14 -30 44 -80 67 -110 22 -30 41 -58 41 -63 0 -4 5 -5 10 -2 6
4 27 -6 47 -21 30 -23 35 -24 29 -8 -22 52 -27 93 -23 180 2 52 9 100 16 107
6 6 11 9 11 7 3 -49 15 -122 25 -145 11 -27 12 -18 12 75 0 100 14 166 43 217
5 10 18 40 29 68 20 54 40 70 42 33 0 -12 7 -45 14 -73 l14 -50 -2 43 c-2 23
0 42 3 42 4 0 7 21 9 47 1 29 19 86 48 152 26 58 57 135 69 171 13 35 27 66
33 68 5 2 12 -18 16 -45 18 -133 20 -135 34 -23 15 120 14 107 5 182 -4 32
-10 55 -14 53 -4 -3 -22 41 -40 98 -32 104 -73 188 -139 287 -54 79 -58 88
-33 66 57 -49 177 -268 198 -358 l14 -63 -6 68 c-3 37 -4 67 -1 67 2 0 16 -17
29 -37 32 -48 94 -112 138 -142 19 -14 7 1 -27 33 -107 99 -183 230 -197 344
l-7 53 26 -17 c14 -9 25 -19 25 -23 0 -3 14 -22 31 -41 l30 -35 -15 32 c-9 17
-13 38 -10 46 3 9 -7 34 -22 56 -36 55 -41 52 -8 -4 14 -25 25 -48 22 -50 -2
-2 -37 28 -78 67 -41 39 -68 68 -60 63 10 -5 8 -1 -4 13 -21 24 -41 30 -31 10
4 -7 -9 3 -27 23 -18 20 -86 71 -151 113 l-118 76 -94 0 -94 0 38 -57 c68
-103 64 -110 -16 -25 -73 78 -93 93 -93 74z m609 -679 c11 -46 16 -83 11 -83
-18 0 -38 41 -55 114 -15 66 -16 79 -4 87 17 10 23 -5 48 -118z m-150 -78 c48
-25 52 -83 17 -250 -29 -136 -65 -255 -83 -275 -13 -13 -14 -12 -9 10 25 113
36 225 36 368 0 89 2 162 5 162 4 0 19 -7 34 -15z m91 -338 c-5 -47 -13 -94
-19 -105 -6 -11 -11 -38 -12 -59 0 -21 -4 -47 -9 -58 -7 -17 -9 -14 -11 15 -3
44 -1 71 8 90 7 18 7 19 24 155 10 85 14 103 20 78 3 -18 3 -70 -1 -116z
m-235 -144 c-4 -32 -15 -74 -26 -93 l-18 -35 -1 57 c0 40 6 67 21 92 12 20 23
36 26 36 3 0 2 -26 -2 -57z m-21 -205 c-6 -54 -9 -67 -15 -48 -11 37 -10 76 1
106 17 43 22 21 14 -58z m-110 -159 c7 -41 17 -83 21 -94 8 -18 7 -19 -9 -6
-34 28 -47 67 -40 126 4 31 8 54 10 52 2 -2 10 -37 18 -78z"/>
<path d="M1017 3874 c-20 -19 -48 -56 -62 -81 -24 -44 -35 -74 -15 -43 7 11
10 -5 10 -51 0 -69 42 -219 80 -289 25 -46 24 -40 -8 55 -27 76 -27 82 -15
150 8 38 21 95 30 125 l17 55 6 -40 5 -40 7 31 c4 18 10 43 13 57 6 21 3 25
-12 23 -10 -2 -26 -16 -35 -32 -18 -31 -47 -153 -49 -207 l-1 -32 -8 30 c-4
17 -8 64 -9 105 -1 85 19 140 65 183 15 15 26 29 23 31 -3 3 -22 -10 -42 -30z"/>
<path d="M3270 3808 c29 -38 54 -68 57 -68 7 0 -31 50 -72 95 -23 25 -17 15
15 -27z"/>
<path d="M729 3667 c-25 -29 -81 -105 -125 -170 -113 -169 -113 -170 -108
-179 3 -5 -13 -56 -36 -115 -23 -59 -53 -149 -66 -201 -27 -105 -44 -290 -35
-372 7 -54 7 -54 24 65 27 183 36 234 54 305 19 75 21 79 32 61 6 -9 16 9 31
55 37 112 106 268 195 442 46 89 83 162 82 161 -1 0 -23 -23 -48 -52z"/>
<path d="M2536 3675 c3 -16 17 -54 30 -84 13 -29 22 -57 19 -62 -3 -4 4 -59
15 -121 43 -232 48 -444 15 -643 l-13 -80 -2 70 -3 70 -8 -87 c-4 -49 -12
-111 -18 -138 -15 -71 -13 -91 5 -50 30 68 74 303 74 394 0 52 2 57 19 51 28
-9 66 72 56 123 -13 72 -67 244 -101 325 -38 91 -40 99 -19 71 8 -10 15 -15
15 -11 0 13 -62 160 -77 182 -13 19 -14 18 -7 -10z"/>
<path d="M3417 3566 c3 -22 26 -78 51 -125 24 -47 41 -75 37 -61 -11 43 -55
154 -75 190 l-19 35 6 -39z"/>
<path d="M2397 3483 c-4 -33 27 -340 38 -368 7 -21 4 92 -4 150 -5 33 -12 102
-15 154 -4 52 -8 96 -10 98 -2 2 -6 -13 -9 -34z"/>
<path d="M537 3463 c-11 -11 -8 -20 8 -20 8 0 15 6 15 14 0 14 -12 17 -23 6z"/>
<path d="M816 3415 c-9 -24 -35 -224 -39 -300 -10 -194 35 -460 119 -708 58
-170 62 -187 20 -102 -32 66 -100 257 -127 355 -6 25 -14 39 -16 33 -8 -22
-25 -14 -18 8 6 19 5 20 -17 8 -21 -11 -22 -11 -9 5 8 9 11 19 7 23 -3 3 -6 1
-6 -5 0 -7 -4 -12 -9 -12 -5 0 -15 46 -22 101 -10 79 -10 132 -2 233 6 72 9
133 7 135 -2 2 -9 -17 -16 -42 -6 -25 -15 -44 -19 -41 -9 5 -17 -34 -29 -138
-7 -60 -8 -50 -5 60 4 135 -7 178 -19 73 -4 -32 -7 -115 -7 -185 0 -69 -2
-126 -4 -126 -3 0 -11 13 -19 29 -11 20 -14 44 -9 79 3 28 2 59 -2 69 -13 32
-26 -32 -32 -167 -7 -146 -18 -131 -32 45 l-8 110 -1 -170 c-1 -95 3 -177 8
-185 8 -13 10 -13 10 0 0 33 23 -13 59 -121 21 -63 53 -143 71 -179 30 -61
130 -230 135 -230 2 0 -12 35 -31 78 -64 148 -121 424 -96 468 9 16 16 6 56
-75 25 -52 46 -103 46 -113 0 -30 60 -197 97 -273 38 -77 61 -110 123 -176
l41 -44 -47 70 c-66 99 -128 245 -103 245 5 0 9 -5 9 -11 0 -14 133 -152 225
-233 64 -56 73 -55 18 3 -23 24 -99 136 -122 179 -13 25 -5 29 18 9 9 -8 34
-24 56 -37 l40 -23 -51 49 c-40 38 -56 62 -68 103 -22 76 -21 79 19 29 19 -23
40 -48 47 -55 7 -7 35 -32 61 -57 27 -24 63 -50 80 -57 18 -7 35 -17 38 -22 3
-5 9 -2 12 7 6 16 -26 46 -49 46 -19 0 -126 112 -140 147 -8 17 -18 34 -24 38
-5 3 -10 10 -10 15 0 4 32 -5 71 -22 95 -40 116 -33 45 16 -31 21 -56 42 -56
46 0 4 16 28 36 54 28 37 33 50 24 59 -9 9 -15 7 -26 -7 -12 -17 -14 -18 -14
-3 0 20 -15 22 -27 5 -8 -13 -9 -18 -11 -52 -2 -14 -5 -16 -15 -7 -11 8 -18 6
-32 -9 -21 -24 -35 -18 -35 16 0 14 -6 35 -14 47 -13 20 -36 111 -36 142 0 7
20 25 45 40 25 14 43 30 40 35 -3 5 -24 -2 -46 -16 -23 -14 -42 -24 -44 -22
-2 2 -7 56 -11 121 -5 80 -3 121 4 130 9 10 6 35 -9 98 -11 46 -27 125 -34
174 l-14 90 4 -80 c3 -44 10 -96 15 -115 13 -45 13 -126 0 -150 -6 -11 -11
-59 -11 -107 -1 -66 -4 -81 -10 -58 -11 38 -29 201 -29 262 0 36 -3 44 -10 33
-7 -10 -10 39 -8 158 2 94 2 172 2 172 -1 0 -4 -7 -8 -15z"/>
<path d="M415 3308 c-77 -104 -198 -244 -241 -278 -18 -15 -62 -46 -98 -70
-36 -23 -66 -44 -66 -46 0 -14 170 75 177 93 3 7 12 13 19 13 25 0 194 170
194 195 0 24 32 59 44 48 4 -4 4 1 0 10 -4 11 0 25 10 36 18 20 39 81 28 81
-4 0 -34 -37 -67 -82z"/>
<path d="M631 3204 c0 -11 3 -14 6 -6 3 7 2 16 -1 19 -3 4 -6 -2 -5 -13z"/>
<path d="M2601 3030 c-13 -76 -48 -215 -76 -305 -8 -27 -11 -45 -6 -40 16 17
80 227 91 302 16 99 7 137 -9 43z"/>
<path d="M2566 3059 c-14 -69 -36 -207 -35 -224 2 -39 28 68 38 153 9 83 7
121 -3 71z"/>
<path d="M951 2978 c-1 -27 36 -119 68 -166 18 -28 27 -51 23 -64 -3 -14 -1
-19 6 -14 15 9 114 -143 107 -165 -6 -18 39 -79 58 -79 6 0 29 -19 52 -43 36
-38 38 -43 18 -39 -12 2 -41 24 -63 48 -46 50 -50 52 -50 25 0 -24 100 -131
123 -131 9 0 22 9 29 20 14 23 28 26 28 8 0 -12 31 -35 90 -66 16 -8 10 1 -17
26 -24 22 -43 44 -43 50 0 6 -9 17 -20 25 -41 28 31 17 80 -12 45 -28 237
-121 249 -121 3 0 -22 28 -55 63 -34 34 -87 95 -118 135 -57 72 -73 87 -62 55
8 -24 -44 38 -96 112 -23 33 -75 116 -115 185 -40 68 -73 121 -73 117 0 -4 14
-37 31 -73 30 -65 34 -98 6 -52 -66 110 -102 158 -116 158 -15 -1 -15 -1 0
-10 13 -8 16 -23 14 -71 -2 -38 1 -56 6 -48 7 12 9 11 9 -1 0 -13 1 -13 11 0
8 12 10 12 7 1 -6 -20 -43 -24 -58 -6 -7 8 -10 22 -6 30 3 10 2 13 -5 10 -6
-4 -7 3 -3 19 5 22 3 26 -14 26 -15 0 -22 8 -25 28 -3 22 -4 20 -6 -10 0 -21
8 -61 19 -89 41 -104 -1 -53 -58 71 -17 36 -31 57 -31 48z m317 -244 c-4 -3
-12 5 -18 18 -12 22 -12 22 6 6 10 -10 15 -20 12 -24z m30 -49 c-3 -3 -9 2
-12 12 -6 14 -5 15 5 6 7 -7 10 -15 7 -18z m-140 -60 c-3 -3 -9 2 -12 12 -6
14 -5 15 5 6 7 -7 10 -15 7 -18z m201 -17 c8 -13 39 -54 69 -91 29 -38 52 -70
50 -73 -3 -2 -34 33 -69 78 -75 96 -83 108 -72 108 5 0 14 -10 22 -22z m180
-218 c44 -42 42 -55 -3 -19 -23 18 -53 59 -43 59 2 0 23 -18 46 -40z"/>
<path d="M2923 2915 c0 -22 2 -30 4 -17 2 12 2 30 0 40 -3 9 -5 -1 -4 -23z"/>
<path d="M1260 2874 c0 -6 83 -161 120 -225 27 -46 72 -95 76 -82 3 7 41 -6
110 -38 129 -61 343 -141 358 -135 7 3 6 5 -2 5 -19 1 -159 106 -219 164 -29
28 -55 48 -58 45 -3 -3 25 -33 61 -68 92 -86 48 -59 -62 37 -49 44 -118 99
-153 123 -56 37 -169 128 -209 167 -15 14 -22 16 -22 7z"/>
<path d="M2798 2857 c-3 -19 -2 -25 4 -19 6 6 8 18 6 28 -3 14 -5 12 -10 -9z"/>
<path d="M2090 2819 c0 -5 5 -7 10 -4 6 3 10 8 10 11 0 2 -4 4 -10 4 -5 0 -10
-5 -10 -11z"/>
<path d="M380 2530 c-5 -45 -1 -75 16 -113 20 -43 30 -44 13 -1 -6 16 -15 54
-19 84 -4 30 -9 44 -10 30z"/>
<path d="M532 2480 c0 -8 6 -31 13 -50 7 -19 13 -28 13 -20 0 8 -6 31 -13 50
-7 19 -13 28 -13 20z"/>
<path d="M1140 2286 c0 -2 8 -10 18 -17 15 -13 16 -12 3 4 -13 16 -21 21 -21
13z"/>
<path d="M2496 2083 c-6 -14 -5 -15 5 -6 7 7 10 15 7 18 -3 3 -9 -2 -12 -12z"/>
<path d="M1193 2070 c68 -105 97 -170 97 -214 0 -59 14 -59 30 1 6 26 16 50
21 54 5 3 -9 41 -31 85 -23 43 -38 70 -35 59 20 -55 19 -58 -4 -46 -12 7 -38
29 -58 49 -23 24 -30 28 -20 12z"/>
<path d="M2870 1954 c-230 -83 -426 -178 -562 -271 -42 -29 -80 -53 -83 -53
-3 0 -5 38 -5 85 0 100 1 100 -96 15 -111 -97 -220 -170 -256 -171 -30 0 -31
-1 -12 -11 26 -12 78 12 144 67 80 67 80 67 98 -5 l8 -35 12 48 c7 26 14 47
16 47 2 0 13 -15 25 -32 11 -18 21 -27 21 -20 0 6 5 12 10 12 6 0 10 -11 10
-24 0 -14 16 -59 35 -102 19 -42 35 -79 35 -83 0 -9 -48 -36 -242 -132 -98
-49 -178 -90 -178 -92 0 -20 -127 -278 -145 -295 -14 -13 -25 -33 -25 -46 0
-15 -30 -62 -75 -120 -130 -167 -141 -185 -160 -271 -9 -44 -21 -95 -26 -114
-5 -19 -7 -37 -5 -39 3 -2 20 21 40 52 20 31 40 56 46 56 5 0 10 -1 10 -3 0
-23 -26 -195 -41 -270 -27 -137 -26 -147 10 -147 26 0 34 8 69 73 57 104 171
300 180 309 4 4 5 -81 4 -187 l-4 -195 36 0 36 0 1 253 c1 138 2 257 4 262 1
6 3 22 3 38 3 37 17 34 30 -5 9 -30 10 -31 12 -8 2 24 2 24 11 -5 8 -28 -5
-393 -15 -426 -2 -8 -7 -35 -10 -62 -5 -44 -4 -47 17 -47 22 0 23 3 18 48 -6
49 11 477 19 485 43 40 358 266 395 283 28 13 102 35 165 50 63 14 160 39 215
54 55 15 123 31 150 34 28 3 62 8 77 11 25 5 27 2 37 -47 11 -51 51 -299 51
-312 0 -3 -3 -5 -7 -5 -21 3 -33 -2 -33 -15 0 -8 -6 -16 -12 -19 -7 -2 -10 -7
-7 -11 4 -4 13 -1 20 7 12 11 17 10 34 -6 17 -17 17 -19 3 -14 -12 4 -18 1
-18 -8 0 -8 8 -12 19 -10 14 2 20 -4 24 -23 3 -15 16 -65 28 -112 26 -96 38
-88 15 10 -9 36 -12 68 -8 71 9 9 163 29 222 29 29 0 56 -7 71 -17 64 -47 73
-46 136 14 19 19 39 30 48 27 17 -7 78 34 70 47 -4 5 -1 9 4 9 6 0 11 -6 11
-13 0 -8 10 -19 23 -24 12 -6 90 -70 172 -143 83 -72 162 -141 178 -152 l27
-19 0 430 0 431 -36 15 c-19 8 -38 14 -42 13 -4 -1 -20 4 -37 11 -16 7 -63 13
-102 14 -40 0 -73 5 -73 9 0 5 -6 6 -12 2 -17 -10 -218 -11 -225 -2 -2 5 -23
8 -45 8 -29 0 -46 -6 -59 -22 -13 -14 -19 -16 -19 -7 0 11 -2 11 -10 -1 -6
-10 -10 -11 -10 -2 0 6 -5 12 -11 12 -6 0 -8 -7 -5 -16 4 -9 0 -24 -7 -33 -17
-19 -30 -84 -20 -95 5 -4 8 -13 8 -19 0 -13 24 -17 40 -7 19 12 50 5 53 -12 3
-14 -5 -16 -48 -15 -35 0 -55 -4 -60 -14 -7 -11 -12 -11 -22 -1 -6 6 -20 12
-30 12 -10 0 -57 18 -105 41 -179 84 -224 91 -401 64 -53 -8 -113 -16 -132
-19 -88 -12 -245 -47 -355 -79 -66 -19 -136 -38 -156 -41 -28 -5 -38 -13 -43
-30 -3 -13 -18 -29 -35 -36 -21 -8 -32 -21 -37 -43 -4 -18 -15 -43 -26 -57
l-20 -25 7 38 c6 32 4 42 -16 63 -12 13 -30 24 -38 24 -14 0 -14 -2 -1 -10 8
-5 12 -12 9 -15 -9 -9 -40 6 -33 16 10 18 -15 9 -42 -14 -22 -20 -29 -36 -35
-92 -6 -43 -18 -84 -35 -113 -24 -41 -25 -46 -10 -57 16 -12 22 -61 8 -81 -10
-14 -98 -74 -110 -74 -8 0 4 80 46 290 12 58 24 122 27 143 6 35 11 40 73 68
37 17 94 41 127 54 33 12 141 60 240 105 280 127 587 257 693 294 173 59 354
94 512 96 63 1 129 3 145 4 17 1 34 0 39 -3 25 -12 130 -11 138 1 5 9 8 9 8 1
0 -11 37 -11 78 2 12 4 22 3 22 -1 0 -5 11 -9 25 -9 14 0 25 6 25 13 0 6 7 12
15 12 8 0 15 8 14 18 0 10 -3 12 -6 5 -2 -7 -9 -13 -14 -13 -6 0 -7 5 -4 10 3
6 0 10 -7 11 -32 2 42 17 91 18 39 1 60 -4 74 -16 16 -14 19 -14 14 -3 -3 8
-21 51 -39 95 -18 44 -34 72 -36 63 -3 -17 -23 -20 -207 -33 -73 -5 -77 -4
-50 8 17 7 75 26 130 41 112 32 133 42 64 32 l-46 -7 -63 123 c-80 157 -99
178 -161 178 -26 0 -78 -9 -115 -21 -61 -18 -258 -97 -338 -135 -16 -8 -30
-14 -32 -14 -1 0 -22 36 -46 79 -23 44 -49 81 -58 83 -8 2 -67 -15 -130 -38z
m839 -72 c17 -34 31 -65 31 -67 0 -3 -21 -5 -47 -5 -27 0 -86 -7 -133 -15 -47
-9 -101 -15 -120 -14 -61 2 -67 0 -100 -33 -40 -41 -52 -66 -74 -150 -15 -55
-22 -68 -44 -77 -15 -6 -135 -51 -267 -100 -253 -94 -309 -116 -470 -186 -80
-35 -108 -42 -140 -39 -31 4 -73 -6 -183 -44 -78 -28 -142 -49 -142 -46 0 2
26 21 58 42 122 83 292 178 485 273 111 55 243 123 292 152 50 29 133 70 185
90 136 53 246 110 379 196 64 41 138 84 166 96 46 21 51 21 71 6 12 -9 36 -44
53 -79z m-219 -797 c-5 -7 -8 -14 -5 -17 3 -2 -2 -5 -10 -5 -10 0 -12 4 -5 12
5 7 8 14 5 17 -3 2 2 5 10 5 10 0 12 -4 5 -12z m80 -10 c-5 -7 -9 -14 -7 -16
1 -2 0 -3 -2 -1 -11 7 -7 29 5 29 9 0 11 -4 4 -12z m65 -14 c3 -5 2 -12 -3
-15 -5 -3 -9 1 -9 9 0 17 3 19 12 6z m-562 -133 c3 -12 15 -18 34 -18 17 0 41
-12 62 -30 18 -17 29 -30 24 -30 -15 0 -53 -36 -46 -44 3 -3 -3 -6 -15 -6 -15
0 -24 -8 -28 -27 -4 -15 -18 -36 -31 -46 -18 -14 -21 -22 -13 -32 8 -10 8 -15
-1 -21 -8 -5 -9 -3 -4 5 5 9 2 12 -11 9 -12 -2 -21 -15 -24 -33 -5 -26 -7 -27
-13 -11 -4 11 -10 42 -13 70 -3 28 -17 94 -30 148 -13 53 -24 101 -24 107 0
33 123 -6 133 -41z m411 54 c3 -5 -1 -9 -9 -9 -8 0 -12 4 -9 9 3 4 7 8 9 8 2
0 6 -4 9 -8z m36 -112 c0 -12 -8 -12 -35 0 -18 8 -17 9 8 9 15 1 27 -3 27 -9z
m-290 -55 c10 -13 9 -15 -9 -15 -12 0 -21 6 -21 15 0 8 4 15 9 15 5 0 14 -7
21 -15z m-1422 -25 c-7 -10 -14 -17 -17 -15 -4 4 18 35 25 35 2 0 -1 -9 -8
-20z m58 -15 c3 -14 3 -32 0 -41 -6 -15 -8 -15 -26 1 -20 18 -26 46 -13 58 14
15 33 6 39 -18z m199 -65 c3 -5 -8 -16 -24 -25 -32 -16 -54 -3 -31 18 10 9 11
9 5 -2 -6 -11 -2 -10 16 2 28 20 26 20 34 7z m1395 -55 c0 -8 -4 -15 -10 -15
-5 0 -7 7 -4 15 4 8 8 15 10 15 2 0 4 -7 4 -15z m-1460 1 c0 -2 -7 -7 -16 -10
-8 -3 -12 -2 -9 4 6 10 25 14 25 6z m-143 -43 c-3 -10 -5 -4 -5 12 0 17 2 24
5 18 2 -7 2 -21 0 -30z m1616 -38 c-3 -8 -10 -15 -15 -15 -7 0 -6 5 1 13 6 8
7 18 3 22 -4 5 -2 5 5 1 7 -4 10 -13 6 -21z m87 5 c-12 -23 -40 -27 -40 -5 0
8 6 12 14 9 8 -3 17 -1 21 5 11 19 16 12 5 -9z m-137 -89 c3 -14 1 -18 -9 -14
-15 6 -18 16 -7 26 9 10 10 9 16 -12z m-1759 -180 c-16 -28 -32 -51 -36 -51
-11 0 -27 42 -21 53 6 10 77 56 81 52 2 -2 -9 -26 -24 -54z"/>
<path d="M1835 761 c-3 -5 -1 -12 5 -16 5 -3 10 1 10 9 0 18 -6 21 -15 7z"/>
<path d="M3286 1135 c-3 -8 -1 -15 4 -15 6 0 10 7 10 15 0 8 -2 15 -4 15 -2 0
-6 -7 -10 -15z"/>
<path d="M1380 270 c-12 -16 -19 -30 -16 -30 2 0 14 14 26 30 12 17 19 30 16
30 -2 0 -14 -13 -26 -30z"/>
<path d="M1323 193 c-34 -44 -103 -164 -103 -181 0 -7 13 -12 29 -12 27 0 29
2 40 74 9 54 20 84 42 115 38 51 33 54 -8 4z"/>
<path d="M2595 159 c-5 -5 -49 -38 -97 -74 -47 -35 -89 -69 -93 -75 -4 -7 33
-10 113 -10 115 0 119 1 141 26 43 49 46 69 18 100 -14 15 -24 31 -21 36 7 11
-49 9 -61 -3z"/>
<path d="M3700 156 c0 -8 19 -47 42 -85 37 -61 47 -71 70 -71 16 0 28 3 28 8
-1 4 -24 41 -53 82 -50 71 -87 100 -87 66z"/>
<path d="M3096 120 c7 -56 24 -123 29 -118 7 6 -12 109 -24 138 -9 21 -10 18
-5 -20z"/>
<path d="M2301 94 c0 -11 3 -14 6 -6 3 7 2 16 -1 19 -3 4 -6 -2 -5 -13z"/>
<path d="M2275 62 c-11 -2 -24 -8 -29 -13 -6 -5 -18 -9 -28 -9 -10 0 -21 -7
-25 -16 -3 -8 -12 -13 -19 -10 -8 3 -14 1 -14 -4 0 -6 35 -10 81 -10 l81 0 -7
27 c-8 35 -15 41 -40 35z"/>
</g>
</svg>
